<svg xmlns="http://www.w3.org/2000/svg" viewBox="0 0 57.98 57.98">
  <g>
    <path fill="#ffffff" d="m32.1,57.82c6.36-.68,12.53-3.45,17.4-8.32s7.64-11.05,8.32-17.4c-6.4.59-12.63,3.32-17.51,8.21-4.89,4.89-7.62,11.12-8.21,17.51Z"/>
    <path fill="#ffffff" d="m8.49,8.49C3.92,13.05,1.2,18.76.32,24.69c5.97-.81,11.73-3.49,16.3-8.07C21.08,12.15,23.88,6.47,24.7.31c-5.93.88-11.65,3.61-16.22,8.17h0Z"/>
    <path fill="#ffffff" d="m57.91,31.09c.58-8.1-2.21-16.41-8.41-22.6S34.2-.77,25.73.18c-.81,6.47-3.72,12.46-8.4,17.14S6.46,24.92.19,25.71c-.96,8.47,1.8,17.29,8.3,23.79h0c6.2,6.2,14.5,8.99,22.6,8.41.57-6.68,3.41-13.21,8.51-18.31,5.1-5.1,11.63-7.94,18.31-8.51Z"/>
    <path fill="#c12f52" d="m25.73.18c-.34.04-.68.08-1.02.13-.83,6.15-3.62,11.84-8.09,16.31C12.04,21.2,6.28,23.88.32,24.69c-.05.34-.09.68-.13,1.02,6.27-.79,12.34-3.58,17.14-8.39S24.92,6.65,25.73.18Z"/>
    <path fill="#c12f52" d="m40.31,40.31c4.89-4.89,11.12-7.62,17.51-8.21.04-.34.06-.67.09-1.01-6.68.57-13.21,3.41-18.31,8.51-5.1,5.1-7.94,11.63-8.51,18.31.34-.02.67-.05,1.01-.09.59-6.4,3.32-12.63,8.21-17.51Z"/>
  </g>
</svg>