<svg xmlns="http://www.w3.org/2000/svg" viewBox="0 0 57.98 57.98">
  <path fill="#ffffff" d="m57.77,32.41c.01-.11.04-.21.05-.32.04-.34.06-.67.09-1.01.58-8.1-2.21-16.41-8.41-22.6S34.2-.77,25.73.18c-.81,6.47-3.72,12.46-8.4,17.14C12.52,22.13,6.46,24.92.19,25.71c-.96,8.47,1.8,17.29,8.3,23.79h0c6.2,6.2,14.5,8.99,22.6,8.41.34-.02.67-.05,1.01-.09.11-.01.22-.04.33-.05.82-6.22,3.59-12.22,8.36-16.99s10.58-7.54,16.99-8.38Z"/>
  
  <path fill="#ffffff" d="m33.45,57.62c5.87-.91,11.52-3.6,16.04-8.12s7.22-10.18,8.12-16.06c-6.08.86-11.71,3.63-16.13,8.05-4.53,4.53-7.2,10.22-8.04,16.13Z"/>

  <path fill="#ffffff" d="m24.7.31c-5.93.88-11.65,3.61-16.22,8.17h0C3.92,13.05,1.2,18.76.32,24.69c5.97-.81,11.73-3.49,16.3-8.07C21.08,12.15,23.88,6.47,24.7.31Z"/>

  <path fill="#c12f52" d="m25.73.18c-.34.04-.68.08-1.02.13-.83,6.15-3.62,11.84-8.09,16.31C12.04,21.2,6.28,23.88.32,24.69c-.05.34-.09.68-.13,1.02,6.27-.79,12.34-3.58,17.14-8.39C22.01,12.64,24.92,6.65,25.73.18Z"/>

  <path fill="#c12f52" d="m41.49,41.49c4.42-4.42,10.04-7.2,16.13-8.05.05-.34.11-.68.15-1.03-6.41.84-12.34,3.73-16.99,8.38s-7.54,10.77-8.36,16.99c.34-.04.68-.1,1.03-.15.84-5.9,3.51-11.59,8.04-16.13Z"/>
</svg>